<svg
    xmlns="http://www.w3.org/2000/svg"
    xml:space="preserve"
    viewBox="0 0 652 652"
    width="100"
>
    <path
    d="m48.9 571.2 11.4-11.7c2-2 4-3.9 5.9-6 .9-1 1.9-1.4 3.3-1.4 7.1.1 14.2 0 21.3.1 1.4 0 2.5-.4 3.5-1.4 1.5-1.7 3.1-3.1 4.8-4.8-1.9-2-3.7-3.7-5.5-5.5-.7-.7-1.4-.7-2.3-.7-5.2 0-10.4.1-15.6 0-1.3 0-2.2.4-3 1.3-3.1 3.2-6.3 6.4-9.5 9.5-.5.5-.8 1.2-1.8 1.3V515c1 .3 1.4 1 2 1.6 3.1 3.1 6.2 6.1 9.3 9.3.8.9 1.7 1.4 3 1.3q7.8-.15 15.6 0c1.1 0 1.9-.3 2.6-1.1 1.7-1.7 3.4-3.3 5.3-5.1l-5.8-5.8c-.8-.8-1.7-.5-2.6-.5-7 0-14-.1-21 0-1.5 0-2.6-.5-3.7-1.5-3.1-3.3-6.3-6.4-9.4-9.5-.5-.5-1.1-.8-1.1-1.5.6-.4 1.3-.2 1.9-.2 13.2 0 26.4 0 39.7-.1 1.4 0 2.4.4 3.5 1.4 5.3 5.4 10.7 10.7 16.1 16.1.5.5 1.1.8 1.3 1.7l-10.3 10.3-1.2 1.2c-.8.6-.8 1.1 0 1.8 1.4 1.3 2.6 2.7 4 4 .9.8 1.4 1.7 1.4 3-.1 3.1-.1 6.3 0 9.4 0 1.2-.4 2-1.2 2.8-3.4 3.3-6.8 6.7-10.1 10.1-.9.9-1.8 1.2-3 1.2-7.1-.1-14.2 0-21.3-.1-1.4 0-2.6.4-3.5 1.4-1.4 1.7-3.3 2.9-4.5 4.8-6.7.2-13.1.2-19.5.2m372.9 0c-1.4-2.3-3.7-3.9-5.5-5.9-.6-.7-1.6-.4-2.3-.4-9.1 0-18.2-.1-27.2 0-1.7 0-2.8-.5-3.9-1.7-1.4-1.7-3.7-2.9-4.5-4.8-.7-1.9-.2-4.2-.2-6.4v-22.8c0-2.2 0-2 2-2.3 3-.3 5.1.7 7.3 2.9 2.3 2.4 3.6 4.7 3.4 8.2-.3 4.1-.1 8.2-.1 12.3 0 1.7.1 1.7 1.8 1.8h10.3c-1.7-2.3-3.9-3.9-5.4-5.9.5-.8 1.1-.5 1.6-.5h15.1c1.1 0 2 .2 2.9 1.1 7.6 7.6 15.1 15.2 22.7 22.8.4.4 1 .7.8 1.4-6.2.2-12.5.2-18.8.2m164.5 0c-.3-.8-1-1.3-1.6-1.8-7-7-14.2-14.1-21.2-21.1-.6-.6-1.3-1-1.8-1.4.5-1.2 1.2-.8 1.7-.8 2.8-.1 5.6 0 8.4 0 2.3 0 2.2.2 2.2-2.1v-33.9c0-1.3.3-2.2 1.3-3 1.8-1.6 3.3-3.9 5.3-4.7s4.7-.3 7.1-.3h11.1c.4.8-.4 1.1-.7 1.4-3.2 3.2-6.4 6.4-9.7 9.6-1.1 1.1-1.6 2.1-1.6 3.6.1 11.3 0 22.6-.1 33.9 0 1.4.5 2.3 1.4 3.3 5.2 5.1 10.4 10.4 15.5 15.7.6.6 1.3 1.1 1.5 1.9-6.3-.3-12.6-.3-18.8-.3M26.3 71.4h3c70.2 0 140.5 0 210.8-.1 1.8 0 3 .5 4.3 1.8 29.7 29.7 59.4 59.5 89.1 89.1.6.6 1.3 1.1 1.7 2.3-.6.5-1.4.9-2 1.6l-57.6 57.6c-2 2-2 2 .1 4.2 9.1 9.1 18.1 18.1 27.2 27.1 1.1 1.1 1.6 2.3 1.6 3.9-.1 19.1-.1 38.1 0 57.2 0 1.7-.5 2.9-1.7 4.1-19.4 19.4-38.9 38.8-58.3 58.3-1.3 1.3-2.5 1.8-4.3 1.7-39.4-.1-78.8 0-118.1-.1-2 0-3.5.5-5 2-8.9 9.2-18.1 18.1-27.1 27.2-1.2 1.2-2.3 1.7-4.1 1.7-29.1-.1-58.3 0-87.4-.1-.8 0-1.6.2-2.6-.3.5-.6 1-1.1 1.5-1.7 29.7-29.8 59.6-59.6 89.3-89.4 1.2-1.2 2.3-1.5 3.9-1.5 39.4 0 78.9 0 118.4.1 2 0 3.3-.5 4.8-2 8.9-9.1 17.9-18 26.9-27 .6-.6 1.1-1.2 1.7-1.7-.1-.8-.7-1.2-1.1-1.6-9.3-9.4-18.7-18.7-28-28.1-1.1-1.1-2.3-1.4-3.8-1.4h-88.2c-1.7 0-2.7.6-3.9 1.7-19.2 19.3-38.5 38.5-57.7 57.8-.6.6-1.3 1.2-2.2 2V133.1c.9.2 1.3.9 1.8 1.4l58 58c1.3 1.3 2.6 2 4.5 1.9 29.1-.1 58.3-.1 87.4 0 1.8 0 3-.5 4.3-1.7 9.1-9.2 18.2-18.2 27.3-27.3.3-.3.5-.6.9-.9.8-.6.8-1.1 0-1.8-.3-.2-.6-.6-.9-.9-9.2-9.2-18.4-18.3-27.5-27.5-1.2-1.2-2.4-1.7-4.1-1.7-39.4.1-78.9 0-118.4.1-1.8 0-3.2-.5-4.5-1.8-19.3-18.8-38.6-38-57.8-57.3-.7-.6-1.2-1.2-2.2-2.2m621 340h-2.4c-29 0-58 0-87 .1-2 0-3.3-.6-4.8-2-9-9.1-18.1-18.1-27.1-27.2-1.3-1.3-2.5-1.8-4.3-1.8-49.7.1-99.4 0-149.1.1-2 0-3.3-.5-4.8-1.9-9.1-9.2-18.2-18.2-27.3-27.3-1.1-1.1-1.7-2.2-1.7-3.9.1-49.9 0-99.9 0-149.8v-1c-.2-1.2.4-1.6 1.5-1.5 3.8.1 7.6 0 11.4 0H368c1.1 0 2 .3 2.8 1.1 9.5 9.5 19 19.1 28.5 28.5 1.1 1.1 1.2 2.2 1.2 3.6v87c0 3.4 0 3.4 3.4 3.4h57.5c-.2-.4 0 0 .1-.3 0-.1.1-.2 0-.2-.2-.2-.4-.5-.6-.8l-29.1-29.1v-.4c.8 0 1.5-.1 2.3-.1h87.6c1.6 0 2.7.5 3.9 1.7 39.9 40 79.8 79.9 119.8 119.8.6.6 1.3 1 2 1.4.2 0 .1.3-.1.6m-61-93.1c-1.1-.2-1.4-.9-2-1.4L526 258.6c-1.2-1.2-1.7-2.4-1.7-4.1.1-29.2 0-58.4.1-87.7 0-1.9-.5-3.2-1.9-4.5-9.2-9.1-18.2-18.2-27.3-27.3-1.3-1.3-2.5-1.7-4.3-1.7-49.8.1-99.5 0-149.3.1-1.9 0-3.2-.5-4.5-1.8-19.1-19.3-38.3-38.5-57.5-57.7-.6-.6-1.4-1.1-2.5-1.8 1.4-.8 2.3-.5 3.2-.5h241.9c1.6 0 2.7.5 3.9 1.6 19.5 19.6 39 39.1 58.6 58.6 1.1 1.1 1.7 2.3 1.7 3.9-.1 60.2 0 120.4 0 180.6-.1.5-.1 1.2-.1 2m-157.8 234-7.5-7.5c-1.6-1.7-3.9-3-4.7-5s-.3-4.5-.3-6.8c0-3.4-.1-6.7 0-10.1 0-1.2-.2-2.2-1.2-3-1.4-1.2-2.6-2.5-3.9-3.9-.8-1-1.8-1.2-3-1.2-9.2.1-18.3 0-27.5.1-1.5 0-2.6-.5-3.7-1.5-3.1-3.3-6.3-6.4-9.4-9.5-.5-.5-1.1-.8-1.1-1.5.6-.4 1.3-.2 1.9-.2 15.3 0 30.5 0 45.8-.1 1.5 0 2.6.4 3.6 1.5 3.3 3.4 6.7 6.7 10 10 .8.7 1.2 1.4 1.2 2.6-.1 11.9-.1 23.8-.1 35.6.1-.1 0-.1-.1.5m145.1 12.8h-18.7c-3.6 0-7.1-.1-10.7-.1-1.3 0-2.2-.4-3-1.3-1.6-1.7-3.7-3.1-4.7-5.1s-.3-4.5-.3-6.8c0-11.7-.1-23.2 0-34.9 0-1.6-.5-2.8-1.6-3.9-3-2.9-6-5.9-8.9-8.9-.5-.6-1.3-1.1-1.6-1.8.4-.7 1.1-.3 1.6-.3 4.9-.1 9.9 0 14.8-.1 1.4 0 2.5.4 3.4 1.4.8 1 1.7 2 2.8 2.8 1.7 1.4 2.1 3.1 2 5.1-.1 12.6-.1 25-.1 37.6v1c0 2.6-.2 2.4 2.4 2.4 2.9 0 5.8 0 8.6-.1.9 0 1.7.1 2.4.8 3.7 3.8 7.4 7.5 11.1 11.3.4.3.4.5.5.9m-322.7 5.6c-.8-.2-1.3-1-1.8-1.5-3.1-3.1-6.1-6.2-9.3-9.2-1-1-1.4-1.9-1.4-3.3.1-7.1 0-14.2.1-21.3 0-1.3-.3-2.2-1.2-3-1.4-1.4-2.7-2.9-4.2-4.2-.7-.7-.7-1.2.1-1.8 1.7-1.6 3.4-3.2 5-4.8.7-.7 1.4-.8 2.2-.8 3.1 0 6.3.1 9.4 0 1.4 0 1.7.5 1.7 1.7-.1 7.1 0 14.2-.1 21.3 0 8.3-.1 16.6-.2 25 0 .6.3 1.3-.3 1.9M220.3 502h17.3c.9 0 1.6.3 2.1 1 .8.8 1.5 1.8 2.4 2.4 3.1 2 3 5 2.9 8-.1 1-.5 1.3-1.4 1.3h-10.1c-.7 0-1.3-.3-1.7-.8-3.7-3.7-7.5-7.4-11.2-11.1-.1-.2-.2-.4-.3-.8"
    style="fill: #fff"
    />
</svg>
