<?xml version="1.0" encoding="UTF-8"?>
<svg id="Layer_1" xmlns="http://www.w3.org/2000/svg" version="1.1" viewBox="0 0 1000 300">
  <!-- Generator: Adobe Illustrator 29.8.1, SVG Export Plug-In . SVG Version: 2.1.1 Build 2)  -->
  <defs>
    <style>
      .st0 {
        fill: #fff;
        stroke: #fff;
        stroke-miterlimit: 10;
      }
    </style>
  </defs>
  <path class="st0" d="M457.6,133.6c0-14.2-11.6-25.8-25.8-25.8h-163.1l-14.4,18.8h55.5v65.6h18.9v-65.6h103.3c3.9,0,7,3.2,7,7s-3.2,7-7,7h-45.3l51.6,51.6h25.5l-31.7-32.7c14.2,0,25.7-11.6,25.7-25.8h-.1Z"/>
  <polygon class="st0" points="371.3 192.1 390 192.1 390 159.4 371.3 140.5 371.3 192.1"/>
  <path class="st0" d="M204.5,159.3h33.8v7c0,3.9-3.2,7-7,7h-58v-23.5c0-12.8,10.4-23.2,23.2-23.2h45.8l14.4-18.8h-60.2c-23,0-41.9,18.7-42.1,41.7h0v42.7h76.7c14.2,0,25.8-11.6,25.8-25.8v-25.8h-52.6v18.8h.1Z"/>
  <polygon class="st0" points="123.7 107.8 109.2 126.5 126.5 126.5 126.5 192 145.3 192 145.3 107.8 140.9 107.8 123.7 107.8"/>
  <polygon class="st0" points="626.3 126.5 640.7 107.8 567.1 107.8 552.7 126.5 552.7 126.6 552.7 173.4 483.3 173.4 483.3 159.4 523.7 159.4 538.1 140.5 483.3 140.5 483.3 126.5 538.1 126.5 552.7 107.8 464.6 107.8 464.6 107.9 464.6 192.1 626.3 192.1 640.7 173.4 571.5 173.4 571.5 159.4 611.7 159.4 626.3 140.5 571.5 140.5 571.5 126.5 626.3 126.5"/>
  <path class="st0" d="M83.3,107.8H7v42.1l1.3-1.6,16.7-21.6h58.3c3.9,0,7,3.2,7,7s-2.8,6.7-6.3,6.9h-31.1l-14.4,18.8h45.6c3.5.4,6.3,3.3,6.3,6.9s-3.2,7-7,7H25.9v-33.4l-18.8,24.5v27.7h76.3c14.2,0,25.8-11.6,25.8-25.8s-2.2-11.9-5.9-16.3c3.6-4.5,5.9-10.2,5.9-16.3,0-14.2-11.6-25.8-25.8-25.8h-.1Z"/>
  <path class="st0" d="M974.2,107.6v32.9h-50.5v-32.9h-18.3v57h-18.4c0,3.9-3.2,7-7,7h-20.1c-12.9,0-23.4-10.4-23.4-23.4,0,0-.4-23.4,23.2-23.4h31.6l12.9-17.4h-44.9c-23.1,0-42,18.8-42.1,42,0,0-.2,14.3,7.2,23.7h-62v-14h40.4l14.4-18.8h-54.8v-14h54.8l14.4-18.8h-176.1l-14.4,18.8h55.5v65.5h18.8v-65.5h28.3v65.6h73.6l10.9-14.1c7.7,8.6,18.9,14,31.3,14h20.1c12.4,0,23.5-8.8,25.9-20.5v20.7h18.3v-32.7h50.5v32.6h18.8v-84.4h-18.8,0Z"/>
</svg>